<mxfile host="65bd71144e">
    <diagram id="f_77uzybTg5dbZGR6fF8" name="PÃ¡gina-1">
        <mxGraphModel dx="605" dy="349" grid="1" gridSize="10" guides="1" tooltips="1" connect="1" arrows="1" fold="1" page="1" pageScale="1" pageWidth="827" pageHeight="1169" math="0" shadow="0">
            <root>
                <mxCell id="0"/>
                <mxCell id="1" parent="0"/>
                <mxCell id="2" value="Contacto" style="swimlane;fontStyle=1;align=center;verticalAlign=top;childLayout=stackLayout;horizontal=1;startSize=26;horizontalStack=0;resizeParent=1;resizeParentMax=0;resizeLast=0;collapsible=1;marginBottom=0;whiteSpace=wrap;html=1;fillColor=#99FFFF;" vertex="1" collapsed="1" parent="1">
                    <mxGeometry x="30" y="20" width="90" height="30" as="geometry">
                        <mxRectangle x="30" y="20" width="350" height="260" as="alternateBounds"/>
                    </mxGeometry>
                </mxCell>
                <mxCell id="3" value="- String nombre&lt;div&gt;- String telefonoFijo&lt;/div&gt;&lt;div&gt;- List&amp;lt;String&amp;gt; telefonosCelulares&lt;/div&gt;" style="text;strokeColor=none;fillColor=none;align=left;verticalAlign=top;spacingLeft=4;spacingRight=4;overflow=hidden;rotatable=0;points=[[0,0.5],[1,0.5]];portConstraint=eastwest;whiteSpace=wrap;html=1;" vertex="1" parent="2">
                    <mxGeometry y="26" width="350" height="54" as="geometry"/>
                </mxCell>
                <mxCell id="4" value="" style="line;strokeWidth=1;fillColor=none;align=left;verticalAlign=middle;spacingTop=-1;spacingLeft=3;spacingRight=3;rotatable=0;labelPosition=right;points=[];portConstraint=eastwest;strokeColor=inherit;" vertex="1" parent="2">
                    <mxGeometry y="80" width="350" height="8" as="geometry"/>
                </mxCell>
                <mxCell id="5" value="+ Contacto(String nombre, String celular)&lt;div&gt;+ Contacto (String nombre, String telefonoFijo, String celular)&lt;/div&gt;&lt;div&gt;+ String getNombre()&lt;/div&gt;&lt;div&gt;+ void setNombre(String nombre)&lt;/div&gt;&lt;div&gt;+ String getTelefonoFijo()&lt;/div&gt;&lt;div&gt;+ void setTelefonoFijo(String telefonoFijo)&lt;/div&gt;&lt;div&gt;+ List&amp;lt;String&amp;gt; getTelefonosCelulares()&lt;/div&gt;&lt;div&gt;+ void setTelefonoCelular(String celular, int indice)&lt;/div&gt;&lt;div&gt;+ void agregarCelular(String celular)&lt;/div&gt;&lt;div&gt;+ void eliminarCelular(String celular)&lt;/div&gt;&lt;div&gt;+ String toString()&lt;/div&gt;" style="text;strokeColor=none;fillColor=none;align=left;verticalAlign=top;spacingLeft=4;spacingRight=4;overflow=hidden;rotatable=0;points=[[0,0.5],[1,0.5]];portConstraint=eastwest;whiteSpace=wrap;html=1;" vertex="1" parent="2">
                    <mxGeometry y="88" width="350" height="172" as="geometry"/>
                </mxCell>
                <mxCell id="6" value="Agenda" style="swimlane;fontStyle=1;align=center;verticalAlign=top;childLayout=stackLayout;horizontal=1;startSize=26;horizontalStack=0;resizeParent=1;resizeParentMax=0;resizeLast=0;collapsible=1;marginBottom=0;whiteSpace=wrap;html=1;fillColor=#FFFF66;" vertex="1" parent="1">
                    <mxGeometry x="440" y="20" width="280" height="170" as="geometry">
                        <mxRectangle x="440" y="20" width="80" height="30" as="alternateBounds"/>
                    </mxGeometry>
                </mxCell>
                <mxCell id="7" value="- static Agenda _instancia&lt;div&gt;- List&amp;lt;Contacto&amp;gt; contactos&lt;/div&gt;" style="text;strokeColor=none;fillColor=none;align=left;verticalAlign=top;spacingLeft=4;spacingRight=4;overflow=hidden;rotatable=0;points=[[0,0.5],[1,0.5]];portConstraint=eastwest;whiteSpace=wrap;html=1;" vertex="1" parent="6">
                    <mxGeometry y="26" width="280" height="34" as="geometry"/>
                </mxCell>
                <mxCell id="8" value="" style="line;strokeWidth=1;fillColor=none;align=left;verticalAlign=middle;spacingTop=-1;spacingLeft=3;spacingRight=3;rotatable=0;labelPosition=right;points=[];portConstraint=eastwest;strokeColor=inherit;" vertex="1" parent="6">
                    <mxGeometry y="60" width="280" height="8" as="geometry"/>
                </mxCell>
                <mxCell id="9" value="- Agenda()&lt;div&gt;+ static Agenda getInstancia()&lt;/div&gt;&lt;div&gt;+ boolean agregarContacto(Contacto contacto)&lt;/div&gt;&lt;div&gt;+ boolean eliminarContacto(Contacto contacto)&lt;/div&gt;&lt;div&gt;+ Contacto buscarContacto(String nombre)&lt;/div&gt;&lt;div&gt;+ String toString()&lt;/div&gt;" style="text;strokeColor=none;fillColor=none;align=left;verticalAlign=top;spacingLeft=4;spacingRight=4;overflow=hidden;rotatable=0;points=[[0,0.5],[1,0.5]];portConstraint=eastwest;whiteSpace=wrap;html=1;" vertex="1" parent="6">
                    <mxGeometry y="68" width="280" height="102" as="geometry"/>
                </mxCell>
                <mxCell id="10" value="" style="endArrow=open;html=1;endSize=12;startArrow=diamondThin;startSize=14;startFill=1;edgeStyle=orthogonalEdgeStyle;align=left;verticalAlign=bottom;entryX=1;entryY=0.5;entryDx=0;entryDy=0;exitX=0;exitY=0.5;exitDx=0;exitDy=0;" edge="1" parent="1" source="6" target="2">
                    <mxGeometry x="-1" y="3" relative="1" as="geometry">
                        <mxPoint x="250" y="140" as="sourcePoint"/>
                        <mxPoint x="410" y="140" as="targetPoint"/>
                    </mxGeometry>
                </mxCell>
            </root>
        </mxGraphModel>
    </diagram>
</mxfile>